<svg width="48" height="35" fill="none" xmlns="http://www.w3.org/2000/svg"><path d="M14.224 17.447a8.294 8.294 0 0 0 8.298-8.298A8.294 8.294 0 0 0 14.224.85a8.294 8.294 0 0 0-8.298 8.298 8.294 8.294 0 0 0 8.298 8.298Zm5.69 2.37H19.3c-1.54.741-3.252 1.186-5.075 1.186-1.822 0-3.526-.445-5.075-1.186h-.615A8.537 8.537 0 0 0 0 28.352v2.134a3.557 3.557 0 0 0 3.557 3.556h21.337a3.557 3.557 0 0 0 3.556-3.556v-2.134a8.537 8.537 0 0 0-8.535-8.535Zm15.648-2.37a7.114 7.114 0 0 0 7.112-7.113 7.114 7.114 0 0 0-7.112-7.112 7.114 7.114 0 0 0-7.113 7.112 7.114 7.114 0 0 0 7.113 7.113Zm3.556 2.37h-.281c-1.03.356-2.12.593-3.275.593-1.156 0-2.245-.237-3.275-.593h-.281c-1.512 0-2.905.438-4.127 1.142 1.808 1.948 2.941 4.534 2.941 7.393v2.846c0 .162-.037.318-.044.474H43.86a3.557 3.557 0 0 0 3.556-3.557 8.294 8.294 0 0 0-8.298-8.297Z" fill="#fff"/></svg>