<svg width="47" height="38" fill="none" xmlns="http://www.w3.org/2000/svg"><path d="m20.275 37.467-4.434-1.286a.873.873 0 0 1-.596-1.084L25.167.918A.874.874 0 0 1 26.25.322l4.435 1.287c.465.13.727.618.596 1.083l-9.923 34.18a.871.871 0 0 1-1.083.595Zm-8.286-8.156 3.162-3.372a.872.872 0 0 0-.059-1.25l-6.585-5.794 6.585-5.794c.371-.327.4-.894.059-1.25l-3.162-3.373a.873.873 0 0 0-1.236-.036L.278 18.255a.867.867 0 0 0 0 1.272l10.475 9.82a.867.867 0 0 0 1.236-.036Zm23.784.044 10.475-9.82a.866.866 0 0 0 0-1.273L35.773 8.435a.88.88 0 0 0-1.236.036l-3.162 3.373a.872.872 0 0 0 .058 1.25l6.586 5.8-6.586 5.794a.866.866 0 0 0-.058 1.25l3.162 3.373c.327.357.88.371 1.236.044Z" fill="#fff"/></svg>